<svg xmlns="http://www.w3.org/2000/svg" xmlns:svg="http://www.w3.org/2000/svg" id="svg22" fill-rule="evenodd" stroke-linejoin="round" stroke-miterlimit="2" clip-rule="evenodd" version="1.1" viewBox="0 0 24 24"><metadata id="metadata28"/><path id="path20" fill-rule="nonzero" d="m 21.000017,16.475983 c 0,0.369 -0.197,0.709 -0.514,0.887 -1.595,0.9 -6.445,3.633 -8.001,4.509 -0.131,0.075 -0.276,0.118 -0.423,0.126 -0.187,0.012 -0.377,-0.029 -0.547,-0.126 -1.5560003,-0.876 -6.4060003,-3.609 -8.0000003,-4.509 -0.318,-0.178 -0.515,-0.518 -0.515,-0.887 V 7.5249833 c 0,-0.369 0.197,-0.709 0.515,-0.887 1.594,-0.899 6.444,-3.634 8.0000003,-4.51 0.151,-0.085 0.318,-0.128 0.485,-0.128 0.167,0 0.334,0.043 0.485,0.128 1.556,0.876 6.406,3.611 8.001,4.51 0.317,0.178 0.514,0.518 0.514,0.887 z"/></svg>